<svg xmlns="http://www.w3.org/2000/svg" viewBox="0 0 920 620" role="img" aria-labelledby="title desc">
  <title id="title">Écosystème partenaires ECC Finance</title>
  <desc id="desc">Carte abstraite reliant le club aux entreprises, plateformes et experts.</desc>
  <rect width="920" height="620" fill="#F4EFE6"/>
  <g stroke="#21302B" stroke-opacity=".24" stroke-width="2">
    <path d="M460 305 214 166M460 305 220 452M460 305 708 148M460 305 734 458M460 305 462 82M460 305 466 536"/>
    <path d="M214 166 462 82 708 148 734 458 466 536 220 452Z"/>
  </g>
  <g>
    <circle cx="460" cy="305" r="108" fill="#111614"/>
    <circle cx="460" cy="305" r="82" fill="#1C8A78"/>
    <path d="M414 336v-70h80v20h-56v15h48v18h-48v17h58v20h-82Z" fill="#F4EFE6"/>
    <path d="M480 348c25-47 48-72 83-88" fill="none" stroke="#C49A4A" stroke-width="12" stroke-linecap="round"/>
  </g>
  <g font-family="Arial, sans-serif" font-size="24" font-weight="700" fill="#111614">
    <circle cx="214" cy="166" r="72" fill="#FFFFFF"/>
    <text x="214" y="158" text-anchor="middle">Expertise</text>
    <text x="214" y="188" text-anchor="middle" font-size="16" fill="#5F6C66">conférences</text>
    <circle cx="220" cy="452" r="72" fill="#FFFFFF"/>
    <text x="220" y="444" text-anchor="middle">Talents</text>
    <text x="220" y="474" text-anchor="middle" font-size="16" fill="#5F6C66">stages</text>
    <circle cx="708" cy="148" r="72" fill="#FFFFFF"/>
    <text x="708" y="140" text-anchor="middle">Research</text>
    <text x="708" y="170" text-anchor="middle" font-size="16" fill="#5F6C66">analyses</text>
    <circle cx="734" cy="458" r="72" fill="#FFFFFF"/>
    <text x="734" y="450" text-anchor="middle">Marque</text>
    <text x="734" y="480" text-anchor="middle" font-size="16" fill="#5F6C66">visibilité</text>
    <circle cx="462" cy="82" r="58" fill="#C49A4A"/>
    <text x="462" y="91" text-anchor="middle" fill="#111614">Club</text>
    <circle cx="466" cy="536" r="58" fill="#7D2032"/>
    <text x="466" y="545" text-anchor="middle" fill="#FFFFFF">Impact</text>
  </g>
</svg>
