<svg xmlns="http://www.w3.org/2000/svg" viewBox="0 0 900 560" role="img" aria-labelledby="title desc">
  <title id="title">Visualisation recherche finance</title>
  <desc id="desc">Tableau stylisé avec courbes, histogrammes et notes de marché.</desc>
  <rect width="900" height="560" rx="10" fill="#111614"/>
  <rect x="42" y="44" width="816" height="92" rx="8" fill="#F4EFE6"/>
  <rect x="72" y="72" width="180" height="14" rx="7" fill="#111614"/>
  <rect x="72" y="100" width="278" height="10" rx="5" fill="#7B8580"/>
  <rect x="650" y="68" width="150" height="46" rx="23" fill="#1C8A78"/>
  <g opacity=".55" stroke="#8B948E">
    <path d="M74 206h752M74 272h752M74 338h752M74 404h752M74 470h752"/>
    <path d="M164 176v316M254 176v316M344 176v316M434 176v316M524 176v316M614 176v316M704 176v316M794 176v316"/>
  </g>
  <path d="M78 422c44-42 75-64 111-53 48 14 55-74 104-67 45 6 50 84 96 74 48-10 63-142 119-124 41 13 46 81 93 66 48-16 67-95 116-84 40 9 56 65 108 41" fill="none" stroke="#C49A4A" stroke-width="8" stroke-linecap="round"/>
  <path d="M78 377c53-13 79-6 113 22 52 43 78-51 122-28 38 20 48 84 91 78 58-8 63-118 120-106 42 9 48 63 95 61 38-2 62-54 101-42 40 13 60 51 105 42" fill="none" stroke="#1C8A78" stroke-width="6" stroke-linecap="round"/>
  <g fill="#F4EFE6">
    <rect x="102" y="446" width="20" height="26" rx="3"/>
    <rect x="142" y="414" width="20" height="58" rx="3"/>
    <rect x="182" y="430" width="20" height="42" rx="3"/>
    <rect x="222" y="384" width="20" height="88" rx="3"/>
    <rect x="262" y="402" width="20" height="70" rx="3"/>
    <rect x="302" y="360" width="20" height="112" rx="3"/>
    <rect x="342" y="392" width="20" height="80" rx="3"/>
  </g>
  <g fill="#1C8A78">
    <rect x="614" y="184" width="184" height="16" rx="8"/>
    <rect x="614" y="222" width="128" height="10" rx="5"/>
    <rect x="614" y="248" width="188" height="10" rx="5"/>
  </g>
  <g fill="#F4EFE6">
    <rect x="614" y="306" width="218" height="14" rx="7"/>
    <rect x="614" y="340" width="152" height="10" rx="5"/>
    <rect x="614" y="366" width="186" height="10" rx="5"/>
  </g>
</svg>
